<svg xmlns="http://www.w3.org/2000/svg" viewBox="0 0 12 11.6"><title>icon-business</title><path d="M11.56,3.41A15.52,15.52,0,0,1,12,7a16.57,16.57,0,0,1-.42,3.62.76.76,0,0,1-.67.62A34.11,34.11,0,0,1,6,11.6a34.11,34.11,0,0,1-4.91-.36.76.76,0,0,1-.67-.62A16.57,16.57,0,0,1,0,7,16.24,16.24,0,0,1,.42,3.41.78.78,0,0,1,.71,3a.8.8,0,0,1,.5-.17H2.8V1A.79.79,0,0,1,3,.51.73.73,0,0,1,3.45.24,13.29,13.29,0,0,1,6,0,13.29,13.29,0,0,1,8.55.24.79.79,0,0,1,9,.52.75.75,0,0,1,9.2,1V2.8h1.59a.8.8,0,0,1,.5.17A.67.67,0,0,1,11.56,3.41ZM4.4,1.66V2.8H7.6V1.66A14.27,14.27,0,0,0,4.4,1.66Z"/></svg>