<svg xmlns="http://www.w3.org/2000/svg" viewBox="0 0 12 9.23"><title>icon-game</title><path d="M6,0C2,0,0,2.68,0,4.78S1.09,9.23,2.11,9.23,2.28,6,6,6s2.83,3.2,3.89,3.2S12,6.55,12,4.78,10,0,6,0ZM4.51,4a.29.29,0,0,1-.29.3H3.47v.74a.29.29,0,0,1-.3.3H2.88a.29.29,0,0,1-.3-.3V4.32H1.83A.29.29,0,0,1,1.54,4v-.3a.29.29,0,0,1,.29-.29h.75V2.68a.3.3,0,0,1,.3-.3h.29a.3.3,0,0,1,.3.3v.75h.75a.29.29,0,0,1,.29.29ZM8.09,5.36a.75.75,0,0,1-.75-.74.76.76,0,0,1,.75-.75.75.75,0,0,1,.74.75A.74.74,0,0,1,8.09,5.36Zm1.79-.89a.76.76,0,0,1-.75-.75A.75.75,0,0,1,9.88,3a.74.74,0,0,1,.74.74A.75.75,0,0,1,9.88,4.47Z"/></svg>