<svg xmlns="http://www.w3.org/2000/svg" viewBox="0 0 12 12.43"><title>icon-user</title><path d="M11.69,12h0l-.16,0-.26.05-.36.07-.48.06A38.64,38.64,0,0,1,6,12.43,26.28,26.28,0,0,1,.31,12a.45.45,0,0,1-.25-.2.41.41,0,0,1,0-.31A3.45,3.45,0,0,1,.67,10,5.06,5.06,0,0,1,1.93,9a7.13,7.13,0,0,1,1-.44c.29-.12.51-.21.67-.29a2.11,2.11,0,0,0,.51-.32,1,1,0,0,0,.36-.44c.11-.31,0-.75-.39-1.33q-1.7-2.7-.6-4.59A3.06,3.06,0,0,1,4.53.41a2.84,2.84,0,0,1,2.94,0,3.14,3.14,0,0,1,1.1,1.13C9.3,2.79,9.11,4.32,8,6.13a1.84,1.84,0,0,0-.4,1.33,1,1,0,0,0,.5.56,6.21,6.21,0,0,0,1.05.49,8.27,8.27,0,0,1,.94.44A5.06,5.06,0,0,1,11.33,10,3.45,3.45,0,0,1,12,11.48a.41.41,0,0,1-.05.31A.45.45,0,0,1,11.69,12Z"/></svg>